<?xml version="1.0" encoding="utf-8"?>
<!-- Generator: Adobe Illustrator 23.0.3, SVG Export Plug-In . SVG Version: 6.00 Build 0)  -->
<svg version="1.1" id="Layer_1" xmlns="http://www.w3.org/2000/svg" xmlns:xlink="http://www.w3.org/1999/xlink" x="0px" y="0px"
	 viewBox="0 0 28.3 28.3" style="enable-background:new 0 0 28.3 28.3;" xml:space="preserve">
<style type="text/css">
	.st0{fill:#F6F6F6;}
	.st1{fill:#010101;}
	.st2{fill:#F5F5F5;}
	.st3{fill:#020202;}
	.st4{fill:#FEFEFE;}
	.st5{fill:#F3F3F3;}
	.st6{fill:#FDFDFD;}
	.st7{fill:#FCFCFC;}
	.st8{fill:#FFFFFF;stroke:#000000;stroke-miterlimit:10;}
	.st9{fill:none;stroke:#000000;stroke-miterlimit:10;}
	.st10{fill:url(#SVGID_1_);}
	.st11{fill:url(#SVGID_2_);}
	.st12{fill:url(#SVGID_3_);}
	.st13{fill:url(#SVGID_4_);}
	.st14{fill:url(#SVGID_5_);}
	.st15{fill:url(#SVGID_6_);}
	.st16{fill:url(#SVGID_7_);}
	.st17{fill:url(#SVGID_8_);}
	.st18{fill:url(#SVGID_9_);}
	.st19{fill:url(#SVGID_10_);}
	.st20{fill:url(#SVGID_11_);}
	.st21{fill:url(#SVGID_12_);}
	.st22{fill:url(#SVGID_13_);}
	.st23{fill:#CA368D;}
	.st24{fill:#79226C;}
	.st25{fill:url(#SVGID_14_);}
	.st26{fill:url(#SVGID_15_);}
	.st27{fill:url(#SVGID_16_);}
	.st28{fill:url(#SVGID_17_);}
	.st29{fill:url(#SVGID_18_);}
	.st30{fill:url(#SVGID_19_);}
	.st31{fill:url(#SVGID_20_);}
	.st32{fill:url(#SVGID_21_);}
	.st33{fill:url(#SVGID_22_);}
	.st34{fill:url(#SVGID_23_);}
	.st35{fill:url(#SVGID_24_);}
	.st36{fill:url(#SVGID_25_);}
	.st37{opacity:0.8;}
	.st38{fill:#FFFFFF;}
</style>
<radialGradient id="SVGID_1_" cx="14.2293" cy="14.6058" r="13.7012" gradientUnits="userSpaceOnUse">
	<stop  offset="0" style="stop-color:#08F5FF"/>
	<stop  offset="1" style="stop-color:#580DBF"/>
</radialGradient>
<path class="st10" d="M12,9.3c-0.7,0-1.3,0.6-1.3,1.3c0,0.7,0.6,1.3,1.3,1.3c0.7,0,1.3-0.6,1.3-1.3C13.3,9.9,12.7,9.3,12,9.3z
	 M12,11.1c-0.2,0-0.4-0.2-0.4-0.4c0-0.2,0.2-0.4,0.4-0.4c0.2,0,0.5,0.2,0.5,0.4C12.5,10.8,12.3,11.1,12,11.1z M14.7,18.1
	c-0.7,0-1.3,0.6-1.4,1.3c0,0.7,0.6,1.3,1.3,1.4c0.7,0,1.3-0.6,1.3-1.3C16,18.8,15.4,18.2,14.7,18.1z M14.7,19.9
	c-0.2,0-0.4-0.2-0.4-0.4c0-0.2,0.2-0.4,0.4-0.4c0.2,0,0.4,0.2,0.4,0.4C15.1,19.7,14.9,19.9,14.7,19.9z M10.2,14.2
	c-1,0-1.8,0.8-1.8,1.8c0,1,0.8,1.7,1.8,1.8c1,0,1.8-0.8,1.8-1.8C12,15,11.2,14.2,10.2,14.2z M10.2,16.8c-0.5,0-0.9-0.4-0.9-0.9
	c0-0.5,0.4-0.9,0.9-0.9c0.5,0,0.9,0.4,0.9,0.9C11.1,16.4,10.7,16.8,10.2,16.8z M17.8,15.9c0,0.7,0.6,1.3,1.3,1.3
	c0.7,0,1.3-0.6,1.3-1.3c0-0.7-0.6-1.3-1.3-1.3C18.4,14.6,17.8,15.2,17.8,15.9z M19.5,15.9c0,0.2-0.2,0.4-0.4,0.4
	c-0.2,0-0.4-0.2-0.4-0.4c0-0.2,0.2-0.4,0.4-0.5C19.3,15.5,19.5,15.7,19.5,15.9z M27.4,13.5c-0.7-0.5-1.5-0.3-2,0.4
	c-0.1,0.1-0.2,0.2-0.3,0.2c-0.9,0-1.8,0-2.6,0c-0.2,0-0.2-0.1-0.2-0.2c0-0.3-0.1-0.6-0.1-0.9c-0.1-0.6-0.3-1.1-0.5-1.7
	c-0.1-0.2-0.1-0.3,0.1-0.4c0.5-0.2,0.9-0.5,1.4-0.8c0.1-0.1,0.3-0.1,0.4,0c0.7,0.3,1.5,0,1.8-0.8c0.3-0.7-0.1-1.5-0.8-1.8
	c-0.9-0.4-1.9,0.3-1.9,1.4c0,0.2-0.1,0.4-0.3,0.5c-0.4,0.2-0.7,0.4-1.1,0.6c-0.3,0.2-0.3,0.2-0.5-0.1c-0.5-0.7-1.1-1.2-1.7-1.7
	c-0.3-0.2-0.3-0.2-0.1-0.5c0.7-1.2,1.4-2.4,2.1-3.6c0.2-0.3,0.3-0.5,0.7-0.5c0.1,0,0.1,0,0.2,0c0.6-0.2,1-0.8,1-1.3
	c0-0.7-0.4-1.1-1.1-1.3c-0.2,0-0.4,0-0.6,0C20.8,1,20.7,1,20.6,1.1c-0.6,0.4-0.8,1.2-0.4,1.9c0.1,0.1,0.1,0.3,0,0.4
	c-0.7,1.3-1.5,2.6-2.2,3.8c-0.1,0.2-0.2,0.2-0.4,0.1C16.7,7,15.9,6.7,15,6.6c-0.2,0-0.3-0.1-0.3-0.4c0-0.8,0-1.6,0-2.4
	c0-0.2,0.1-0.4,0.3-0.5C15.5,3,15.7,2.6,15.6,2c-0.1-0.6-0.5-1-1.1-1.1c-0.2,0-0.4,0-0.5,0C13.8,1,13.6,1,13.5,1
	c-0.9,0.5-0.9,1.8,0,2.3c0.2,0.1,0.3,0.3,0.3,0.5c0,0.8,0,1.6,0,2.4c0,0.3,0,0.4-0.3,0.4c-0.8,0.1-1.7,0.3-2.4,0.7
	c-0.2,0.1-0.3,0.1-0.4-0.1C9.8,5.9,9.1,4.7,8.4,3.4c-0.1-0.2-0.1-0.3,0-0.5c0.5-0.7,0.1-1.9-1-2c-0.2,0-0.3,0-0.5,0c0,0,0,0-0.1,0
	c-0.7,0.2-1.1,0.8-1,1.4C5.9,3,6.5,3.5,7.2,3.5c0.2,0,0.2,0.1,0.3,0.2C8.2,5.1,9,6.4,9.8,7.8C9.9,7.9,9.9,8,9.7,8.1
	c-0.8,0.5-1.5,1.2-2,2c-0.1,0.2-0.2,0.1-0.3,0.1C6.7,9.7,5.9,9.3,5.2,8.9C5,8.8,4.7,8.6,4.8,8.3c0-0.1,0-0.2,0-0.2
	C4.5,7.3,3.7,6.9,3,7.2C2.3,7.5,2,8.3,2.3,9c0.3,0.7,1.2,0.9,1.9,0.5c0.1-0.1,0.2-0.1,0.4,0C5.4,10,6.1,10.5,7,10.9
	c0.2,0.1,0.2,0.2,0.1,0.3C6.6,12.1,6.4,13,6.3,14c0,0.2-0.1,0.2-0.2,0.2c-0.9,0-1.8,0-2.8,0c-0.1,0-0.2,0-0.3-0.2
	c-0.3-0.5-0.7-0.7-1.2-0.7c-0.7,0.1-1.2,0.6-1.2,1.2c-0.1,0.6,0.3,1.2,0.9,1.4c0.6,0.2,1.2-0.1,1.6-0.7C3.1,15.1,3.2,15,3.3,15
	c0.9,0,1.9,0,2.8,0c0.1,0,0.2,0,0.2,0.2c0.1,1,0.3,1.9,0.7,2.8c0.1,0.2,0,0.2-0.1,0.3c-1.3,0.7-2.5,1.4-3.8,2.2
	c-0.1,0.1-0.2,0.1-0.3,0c-0.2-0.1-0.5-0.2-0.8-0.1c-0.7,0.1-1.2,0.8-1.1,1.5c0.1,0.7,0.8,1.2,1.5,1.1c0.8-0.1,1.3-0.8,1.1-1.5
	c0-0.2,0-0.2,0.2-0.3c1.2-0.7,2.4-1.4,3.6-2.1C7.5,19,7.6,19,7.7,19.1c0.5,0.8,1.2,1.5,2,2c0.2,0.1,0.1,0.2,0.1,0.3
	c-0.3,0.6-0.7,1.2-1,1.8c-0.1,0.1-0.1,0.2-0.3,0.2c-0.6,0-1.1,0.5-1.3,1.1c-0.1,0.5,0.2,1.2,0.7,1.4c0.6,0.3,1.2,0.2,1.6-0.3
	c0.4-0.5,0.4-1.1,0.1-1.6c-0.1-0.1-0.1-0.2,0-0.3c0.3-0.6,0.7-1.2,1-1.8c0.1-0.2,0.2-0.2,0.3-0.1c0.9,0.4,1.8,0.7,2.7,0.7
	c0.2,0,0.2,0.1,0.2,0.3c0,0.9,0,1.8,0,2.8c0,0.2,0,0.2-0.2,0.3c-0.6,0.3-0.8,0.9-0.6,1.5c0.2,0.6,0.7,1,1.3,0.9c0.6,0,1.1-0.4,1.3-1
	c0.2-0.6-0.1-1.2-0.6-1.5c-0.2-0.1-0.2-0.2-0.2-0.4c0-0.9,0-1.8,0-2.7c0-0.1,0-0.2,0.2-0.2c1-0.1,1.9-0.3,2.8-0.7
	c0.1-0.1,0.2-0.1,0.3,0.1c0.5,0.8,0.9,1.6,1.4,2.4c0.1,0.1,0.1,0.2,0,0.3c-0.3,0.5-0.3,1.2,0.2,1.6c0.4,0.4,1.1,0.5,1.6,0.2
	c0.5-0.3,0.8-0.9,0.6-1.5c-0.2-0.6-0.7-1-1.3-1c-0.2,0-0.2,0-0.3-0.2c-0.5-0.8-0.9-1.6-1.4-2.4c-0.1-0.1-0.1-0.2,0.1-0.3
	c0.8-0.5,1.5-1.2,2-2c0.1-0.1,0.2-0.2,0.3-0.1c1.2,0.7,2.4,1.4,3.7,2.1c0.1,0.1,0.2,0.1,0.1,0.3c-0.1,0.6,0.2,1.2,0.8,1.4
	c0.6,0.2,1.2,0.1,1.6-0.4c0.4-0.5,0.4-1.1,0-1.6c-0.4-0.5-1-0.6-1.6-0.4c-0.1,0.1-0.2,0.1-0.3,0c-1.3-0.7-2.5-1.5-3.8-2.2
	c-0.1-0.1-0.2-0.1-0.1-0.3c0.4-0.9,0.7-1.8,0.7-2.8c0-0.2,0.1-0.2,0.2-0.2c0.9,0,1.9,0,2.8,0c0.2,0,0.2,0.1,0.3,0.2
	c0.3,0.5,0.7,0.7,1.2,0.7c0.6,0,1-0.3,1.2-0.8c0-0.1,0-0.1,0.1-0.2c0-0.2,0-0.4,0-0.6C27.9,14,27.7,13.7,27.4,13.5z M23.9,8.4
	c0.2,0,0.4,0.2,0.5,0.4c0,0.2-0.2,0.4-0.4,0.4c-0.2,0-0.4-0.2-0.4-0.4C23.5,8.6,23.7,8.4,23.9,8.4z M21.3,1.8c0.2,0,0.4,0.2,0.4,0.4
	c0,0.2-0.2,0.4-0.4,0.5c-0.2,0-0.4-0.2-0.4-0.4C20.9,2,21.1,1.8,21.3,1.8z M7.2,2.7c-0.2,0-0.4-0.2-0.4-0.4c0-0.3,0.2-0.5,0.4-0.5
	c0.2,0,0.4,0.2,0.5,0.4C7.6,2.5,7.4,2.7,7.2,2.7z M3.5,8.9c-0.2,0-0.4-0.2-0.4-0.4C3.1,8.2,3.3,8,3.5,8c0.2,0,0.4,0.2,0.5,0.4
	C4,8.7,3.8,8.9,3.5,8.9z M1.9,15c-0.2,0-0.4-0.2-0.4-0.4c0-0.2,0.2-0.4,0.4-0.5c0.2,0,0.4,0.2,0.4,0.4C2.3,14.8,2.1,15,1.9,15z
	 M2.3,22.1c-0.2,0-0.4-0.2-0.4-0.4c0-0.2,0.2-0.4,0.4-0.4c0.2,0,0.4,0.2,0.4,0.4C2.7,21.9,2.5,22.1,2.3,22.1z M8.5,25.2
	C8.2,25.2,8,25,8,24.7c0-0.2,0.2-0.4,0.4-0.4c0.2,0,0.4,0.2,0.4,0.4C8.9,25,8.7,25.2,8.5,25.2z M20.4,24.9c0.2,0,0.4,0.2,0.5,0.4
	c0,0.2-0.2,0.4-0.4,0.4c-0.2,0-0.4-0.2-0.4-0.4C20,25.1,20.2,24.9,20.4,24.9z M26.2,21.2c0.2,0,0.4,0.2,0.4,0.4
	c0,0.2-0.2,0.4-0.5,0.4c-0.2,0-0.4-0.2-0.4-0.4C25.7,21.4,25.9,21.2,26.2,21.2z M14.2,1.8c0.2,0,0.4,0.2,0.4,0.4
	c0,0.2-0.2,0.4-0.4,0.4c-0.2,0-0.4-0.2-0.4-0.4C13.8,2,14,1.8,14.2,1.8z M14.2,27.4c-0.2,0-0.4-0.2-0.4-0.4c0-0.2,0.2-0.5,0.4-0.5
	c0.2,0,0.4,0.2,0.4,0.4C14.7,27.2,14.5,27.4,14.2,27.4z M14.2,21.7c-3.9,0-7.1-3.2-7.1-7.1c0-3.9,3.2-7,7.1-7c3.9,0,7.1,3.2,7.1,7.1
	C21.3,18.5,18.1,21.7,14.2,21.7z M26.6,15c-0.2,0-0.4-0.2-0.4-0.4c0-0.2,0.2-0.4,0.4-0.4c0.2,0,0.4,0.2,0.4,0.4
	C27,14.8,26.8,15,26.6,15z M17.8,10.2c-1,0-1.7,0.8-1.8,1.8c0,1,0.8,1.8,1.8,1.8c1,0,1.8-0.8,1.8-1.8C19.5,11,18.7,10.2,17.8,10.2z
	 M17.8,12.8c-0.5,0-0.9-0.4-0.9-0.9c0-0.5,0.4-0.9,0.9-0.9c0.5,0,0.9,0.4,0.9,0.9C18.6,12.4,18.2,12.8,17.8,12.8z"/>
</svg>
