<?xml version="1.0" encoding="utf-8"?>
<!-- Generator: Adobe Illustrator 18.0.0, SVG Export Plug-In . SVG Version: 6.00 Build 0)  -->
<!DOCTYPE svg PUBLIC "-//W3C//DTD SVG 1.1//EN" "http://www.w3.org/Graphics/SVG/1.1/DTD/svg11.dtd">
<svg version="1.1" id="Layer_1" xmlns="http://www.w3.org/2000/svg" xmlns:xlink="http://www.w3.org/1999/xlink" x="0px" y="0px"
	 viewBox="0 0 76.3 77" enable-background="new 0 0 76.3 77" xml:space="preserve">
<g>
	<path fill-rule="evenodd" clip-rule="evenodd" fill="#0595A8" d="M23.1,1h30.7c1.8,0,3.4,0.7,4.5,1.9l0,0c1.2,1.2,1.9,2.8,1.9,4.5
		v31c0,1.8-0.7,3.4-1.9,4.5c-1.2,1.2-2.8,1.9-4.5,1.9H23.1c-1.8,0-3.4-0.7-4.5-1.9c-1.2-1.2-1.9-2.8-1.9-4.5v-31
		c0-1.8,0.7-3.4,1.9-4.5l0,0l0,0C19.8,1.8,21.4,1,23.1,1L23.1,1z M53.9,6.5H23.1c-0.3,0-0.5,0.1-0.7,0.3l0,0
		c-0.2,0.2-0.3,0.4-0.3,0.7v31c0,0.3,0.1,0.5,0.3,0.7c0.2,0.2,0.4,0.3,0.7,0.3h30.7c0.3,0,0.5-0.1,0.7-0.3c0.2-0.2,0.3-0.4,0.3-0.7
		v-31c0-0.3-0.1-0.5-0.3-0.7l0,0C54.4,6.6,54.1,6.5,53.9,6.5z"/>
	<path fill-rule="evenodd" clip-rule="evenodd" fill="#047281" d="M38.5,1h15.4c1.8,0,3.4,0.7,4.5,1.9l0,0c1.2,1.2,1.9,2.8,1.9,4.5
		v31c0,1.8-0.7,3.4-1.9,4.5c-1.2,1.2-2.8,1.9-4.5,1.9H38.5v-5.5h15.4c0.3,0,0.5-0.1,0.7-0.3c0.2-0.2,0.3-0.4,0.3-0.7v-31
		c0-0.3-0.1-0.5-0.3-0.7l0,0c-0.2-0.2-0.4-0.3-0.7-0.3H38.5V1z"/>
	<path fill-rule="evenodd" clip-rule="evenodd" fill="#04B2C8" d="M13.1,23.4h50.9c2.9,0,5.2,2.3,5.2,5.2v42.2
		c0,2.9-2.3,5.2-5.2,5.2H13.1c-2.9,0-5.2-2.3-5.2-5.2V28.6C7.9,25.7,10.2,23.4,13.1,23.4z"/>
	<path fill-rule="evenodd" clip-rule="evenodd" fill="#0595A8" d="M38.5,23.4h25.4c2.9,0,5.2,2.3,5.2,5.2v42.2
		c0,2.9-2.3,5.2-5.2,5.2H38.5V23.4z"/>
	<path fill-rule="evenodd" clip-rule="evenodd" fill="#1D3967" d="M10.3,15h56.4c2.8,0,5.1,2.3,5.1,5.1v8.1c0,2.8-2.3,5.1-5.1,5.1
		H10.3c-2.8,0-5.1-2.3-5.1-5.1v-8.1C5.3,17.3,7.5,15,10.3,15z"/>
	<path fill-rule="evenodd" clip-rule="evenodd" fill="#111F37" d="M38.5,15h28.2c2.8,0,5.1,2.3,5.1,5.1v8.1c0,2.8-2.3,5.1-5.1,5.1
		H38.5V15z"/>
	<path fill-rule="evenodd" clip-rule="evenodd" fill="#CBEBF3" d="M25.9,38.6h25.3c1.4,0,2.6,1.3,2.6,3v24.3c0,1.6-1.2,3-2.6,3H25.9
		c-1.4,0-2.6-1.3-2.6-3V41.6C23.3,40,24.4,38.6,25.9,38.6z"/>
	<path fill-rule="evenodd" clip-rule="evenodd" fill="#B2E1E9" d="M38.5,38.6h12.6c1.4,0,2.6,1.3,2.6,3v24.3c0,1.6-1.2,3-2.6,3H38.5
		V38.6z"/>
	<circle fill-rule="evenodd" clip-rule="evenodd" fill="#DF1F26" cx="38.5" cy="53.8" r="12.7"/>
	<path fill-rule="evenodd" clip-rule="evenodd" fill="#B21F24" d="M38.5,41.1c7,0,12.7,5.7,12.7,12.7c0,7-5.7,12.7-12.7,12.7V41.1z"
		/>
	<g>
		<path fill-rule="evenodd" clip-rule="evenodd" fill="#CBEBF3" d="M37,43.6H40c0.6,0,1.2,0.5,1.2,1.2v18c0,0.6-0.5,1.2-1.2,1.2H37
			c-0.6,0-1.2-0.5-1.2-1.2v-18C35.9,44.2,36.4,43.6,37,43.6z"/>
		<path fill-rule="evenodd" clip-rule="evenodd" fill="#CBEBF3" d="M28.4,55.2v-2.9c0-0.6,0.5-1.2,1.2-1.2h18c0.6,0,1.1,0.5,1.1,1.2
			v2.9c0,0.6-0.5,1.2-1.1,1.2h-18C28.9,56.4,28.4,55.9,28.4,55.2z"/>
	</g>
	<g>
		<path fill-rule="evenodd" clip-rule="evenodd" fill="#B2E1E9" d="M38.5,43.6H40c0.6,0,1.2,0.5,1.2,1.2v18c0,0.6-0.5,1.2-1.2,1.2
			h-1.5V43.6z"/>
		<path fill-rule="evenodd" clip-rule="evenodd" fill="#B2E1E9" d="M38.5,51.2h9c0.6,0,1.1,0.5,1.1,1.1v2.9c0,0.6-0.5,1.2-1.1,1.2
			h-9V51.2z"/>
	</g>
</g>
</svg>
