<?xml version="1.0" encoding="utf-8"?>
<!-- Generator: Adobe Illustrator 23.0.3, SVG Export Plug-In . SVG Version: 6.00 Build 0)  -->
<svg version="1.1" id="Layer_1" xmlns="http://www.w3.org/2000/svg" xmlns:xlink="http://www.w3.org/1999/xlink" x="0px" y="0px"
	 viewBox="0 0 512 512" style="enable-background:new 0 0 512 512;" xml:space="preserve">
<style type="text/css">
	.st0{fill:#020202;}
	.st1{fill:#040404;}
	.st2{fill:#030303;}
	.st3{fill:#050505;}
	.st4{fill:#181818;}
	.st5{fill:#171717;}
	.st6{fill:#0A0A0A;}
	.st7{fill:#00D5E0;}
	.st8{fill:url(#SVGID_1_);}
	.st9{fill:url(#SVGID_2_);}
	.st10{fill:url(#SVGID_3_);}
	.st11{fill:url(#SVGID_4_);}
	.st12{fill:url(#SVGID_5_);}
	.st13{fill:url(#SVGID_6_);}
	.st14{fill:url(#SVGID_7_);}
	.st15{fill:url(#SVGID_8_);}
	.st16{fill:url(#SVGID_9_);}
	.st17{fill:url(#SVGID_10_);}
	.st18{fill:url(#SVGID_11_);}
	.st19{fill:url(#SVGID_12_);}
	.st20{fill:url(#SVGID_13_);}
	.st21{fill:url(#SVGID_14_);}
	.st22{fill:url(#SVGID_15_);}
	.st23{fill:url(#SVGID_16_);}
	.st24{fill:#FFFFFF;}
	.st25{fill:url(#SVGID_17_);}
	.st26{fill:url(#SVGID_18_);}
	.st27{fill:url(#SVGID_19_);}
	.st28{fill:url(#SVGID_20_);}
	.st29{fill:url(#SVGID_21_);}
	.st30{fill:url(#SVGID_22_);}
	.st31{fill:url(#SVGID_23_);}
	.st32{fill:url(#SVGID_24_);}
	.st33{fill:url(#SVGID_25_);}
	.st34{fill:url(#SVGID_26_);}
	.st35{fill:url(#SVGID_27_);}
	.st36{fill:url(#SVGID_28_);}
	.st37{fill:url(#SVGID_29_);}
	.st38{fill:url(#SVGID_30_);}
	.st39{fill:url(#SVGID_31_);}
	.st40{fill:url(#SVGID_32_);}
	.st41{fill:url(#SVGID_33_);}
	.st42{fill:url(#SVGID_34_);}
	.st43{fill:url(#SVGID_35_);}
	.st44{fill:url(#SVGID_36_);}
	.st45{fill:url(#SVGID_37_);}
	.st46{fill:url(#SVGID_38_);}
	.st47{fill:url(#SVGID_39_);}
	.st48{fill:url(#SVGID_40_);}
	.st49{fill:url(#SVGID_41_);}
	.st50{fill:url(#SVGID_42_);}
	.st51{fill:url(#SVGID_43_);}
	.st52{fill:url(#SVGID_44_);}
	.st53{fill:url(#SVGID_45_);}
	.st54{fill:url(#SVGID_46_);}
	.st55{fill:url(#SVGID_47_);}
	.st56{fill:url(#SVGID_48_);}
	.st57{fill:url(#SVGID_49_);}
	.st58{fill:url(#SVGID_50_);}
	.st59{fill:url(#SVGID_51_);}
	.st60{fill:url(#SVGID_52_);}
	.st61{fill:url(#SVGID_53_);}
	.st62{fill:url(#SVGID_54_);}
	.st63{fill:url(#SVGID_55_);}
	.st64{fill:url(#SVGID_56_);}
	.st65{fill:url(#SVGID_57_);}
	.st66{fill:url(#SVGID_58_);}
	.st67{fill:url(#SVGID_59_);}
</style>
<linearGradient id="SVGID_1_" gradientUnits="userSpaceOnUse" x1="12.6112" y1="256" x2="499.3888" y2="256">
	<stop  offset="0" style="stop-color:#00E7FF"/>
	<stop  offset="1" style="stop-color:#192CDD"/>
</linearGradient>
<circle class="st8" cx="256" cy="256" r="243.4"/>
<g>
	<path class="st24" d="M131.7,275.3c0-45.6,0-91.1,0-136.7c0-15.6,4.1-19.6,19.8-19.7c8.5-0.1,17,0.3,25.5-0.1
		c6.6-0.4,9.4,1.2,9.3,8.6c-0.1,7-2.9,7.7-8.8,7.8c-9.6,0.2-22.8-4.5-28,2.1c-4.8,6.2-1.7,18.7-1.7,28.5
		c-0.1,78.6,0.2,157.2-0.3,235.9c-0.1,10.6,2.9,13.1,13.2,13c63.9-0.5,127.8-0.4,191.6,0c9,0.1,12.2-1.8,12.1-11.6
		c-0.4-85.8-0.4-171.5,0-257.3c0-9.1-2.7-11.8-11.3-10.8c-6.2,0.7-12.5,0-18.7,0.2c-5.8,0.2-10,0.3-9.9-8c0-8,3.6-8.6,9.7-8.3
		c8,0.4,16.1,0.1,24.1,0.1c18.2,0.1,22.1,3.9,22.1,21.8c0,63.9,0,127.8,0,191.6c0,26.4,0.1,52.7-0.1,79.1
		c-0.1,15.3-3.9,19.1-18.9,19.1c-70.6,0.1-141.2,0.1-211.7,0c-14.5,0-17.9-3.5-17.9-18.5C131.7,366.4,131.7,320.9,131.7,275.3
		C131.7,275.3,131.7,275.3,131.7,275.3z"/>
	<path class="st24" d="M288.7,263.6c14.3,0,28.5,0.1,42.8-0.1c5.7-0.1,11.1,0,11.2,7.6c0.1,7.1-4.2,8.7-10.5,8.7
		c-28.5-0.2-57-0.1-85.5-0.1c-5.7,0-10.9-0.2-11.2-8c-0.3-9,5.9-8.2,11.8-8.2C261.1,263.6,274.9,263.6,288.7,263.6z"/>
	<path class="st24" d="M288.6,298.4c14.3,0,28.5,0.1,42.8,0c5.7-0.1,11.2-0.3,11.3,7.4c0.1,6.9-4,8.9-10.4,8.9
		c-29-0.2-57.9-0.2-86.9,0c-5.6,0-9.6-1.2-9.9-7.8c-0.3-7.7,4.2-8.5,10.3-8.4C260.1,298.6,274.4,298.4,288.6,298.4z"/>
	<path class="st24" d="M288.1,349.4c-13.8,0-27.6-0.1-41.4,0c-5.7,0.1-10.8-0.1-11.1-7.9c-0.3-7.8,4.3-8.4,10.4-8.4
		c29,0.1,57.9,0.2,86.9,0c5.8,0,9.8,1.1,9.9,7.5c0.1,7-4.1,8.9-10.5,8.8C317.5,349.3,302.8,349.4,288.1,349.4z"/>
	<path class="st24" d="M289.8,368.1c14.3,0,28.5,0.2,42.8-0.1c5.6-0.1,10,0.8,10.2,7.3c0.2,6.8-3.7,9.1-10.2,9
		c-29-0.2-57.9-0.2-86.9,0c-6.4,0-10.3-1.7-10.1-9c0.2-7.1,4.8-7.3,10.1-7.3C260.4,368.2,275.1,368.2,289.8,368.1z"/>
	<path class="st24" d="M290.3,210c-14.7,0-29.4-0.1-44.1,0c-5.9,0-10.7-0.9-10.7-8.5c0-8.1,5.4-7.7,11-7.7c28.5,0.1,57,0.1,85.5,0
		c6,0,10.9,0.7,10.7,8.1c-0.2,7.2-5,8.2-11.1,8.1C317.9,209.9,304.1,210,290.3,210z"/>
	<path class="st24" d="M289.7,228.7c14.3,0,28.5,0.1,42.8-0.1c5.3-0.1,10.1,0.4,10.3,7.2c0.2,6.9-3.7,9.1-10.2,9.1
		c-28.9-0.2-57.9-0.1-86.8,0c-6.3,0-10.4-1.7-10.2-9c0.2-7.2,4.8-7.3,10.1-7.2C260.3,228.8,275,228.7,289.7,228.7z"/>
	<path class="st24" d="M311.2,118.8c0.4-12.7-6.4-18.2-18.1-17.7c-7.4,0.3-11.7-1.6-16.3-8c-10.5-14.6-30.7-15.7-41.3-1.7
		c-6,7.9-12.2,10.1-21,10.1c-9.6,0-14.9,5.5-15,15.1c-0.2,11.1-0.1,22.3,0.2,33.5c0.3,10.3,5.5,15.4,16.1,15.2
		c12.9-0.2,25.9-0.1,38.8-0.1c0,0.2,0,0.4,0,0.6c12.9,0,25.9-0.2,38.8,0.1c12.2,0.3,18.3-5,17.9-17.5
		C311,138.4,310.9,128.6,311.2,118.8z M256.6,98.2c6.4,0.5,9.9,5.1,10,11.8c-0.7,6.7-4.7,10.9-11,10.8c-7-0.1-11.6-4.5-11.3-11.9
		C244.6,101.4,249.7,97.7,256.6,98.2z M273.1,149c-5.8,0-11.6,0-17.3,0c-6.2,0-12.5,0-18.7,0c-22.6,0-22.7,0-21.6-22.9
		c0.2-3.6-1.6-8.6,4.6-9.2c4.4-0.4,7.8,0,11.1,4.7c15.2,21.4,32.3,21.2,48.8-0.7c3.5-4.7,7.3-4.4,11.5-3.9c5.4,0.6,3.5,5.3,3.6,8.5
		C296.4,149,296.3,149,273.1,149z"/>
	<path class="st24" d="M187.7,314.5c25.1,0.3,25.1,0.1,25.1-25.6c-0.4-29.5,3.9-24.8-25.6-25.3c-0.4,0-0.9,0-1.3,0
		c-26.3,0.4-24.1-4-24,24.5C161.9,319.7,158.8,314.2,187.7,314.5z M188,279.4c8.5-0.4,9.8,3.4,8.5,10.2c1.8,7.8-1.6,9.7-9.1,9.8
		c-8.1,0.2-10.3-2.1-10.5-10.3C176.7,279.8,180.9,279.8,188,279.4z"/>
</g>
</svg>
