<?xml version="1.0" encoding="UTF-8" standalone="no"?> <svg id="Layer_1" data-name="Layer 1" xmlns="http://www.w3.org/2000/svg" viewBox="0 0 128 128"><defs><style>.cls-1{fill:#1d75b8;}.cls-2{fill:#2d3e50;}</style></defs><title>v</title><path class="cls-1" d="M61.72757,60.28592A121.96835,121.96835,0,0,0,78.77569,75.32729a4.07372,4.07372,0,0,0,5.82474,0,121.8901,121.8901,0,0,0,17.03923-15.04138,179.10535,179.10535,0,0,0,14.53527-17.30558c4.07559-5.5051,7.81371-11.74725,7.81371-18.80621A21.87393,21.87393,0,0,0,86.65158,8.70658L81.68812,13.67,76.7246,8.70658A21.86946,21.86946,0,0,0,39.38754,24.17413c0,7.059,3.73812,13.30111,7.81371,18.80621A179.01434,179.01434,0,0,0,61.72757,60.28592ZM72.285,36.32978h6.3042v-6.3042a3.09443,3.09443,0,0,1,6.18886,0v6.3042h6.3042a3.09443,3.09443,0,0,1,0,6.18886h-6.3042v6.3042a3.09443,3.09443,0,1,1-6.18886,0v-6.3042H72.285a3.09443,3.09443,0,0,1,0-6.18886Z"/><path class="cls-2" d="M115.86654,84.87521,79.50229,100.13952l-3.24089.93672a15.87456,15.87456,0,0,1-3.53489.60169c-2.59817.14012-6.38258.21537-7.039.25984H44.33116a1.53125,1.53125,0,0,1-.95717-.33847,1.84547,1.84547,0,0,1-.89231-1.55893,1.92341,1.92341,0,0,1,1.9794-1.86318H68.66174a6.07781,6.07781,0,0,0,6.03736-5.36041,5.59811,5.59811,0,0,0,.04447-.72135,6.0822,6.0822,0,0,0-4.90585-5.969c-13.51047-2.65628-26.88427-5.84932-40.75717-4.95364-.54014.03422-5.40833.23251-7.986.46839v35.92663l.13336,2.99813c4.81715.58712,37.34438,4.56644,37.87658,4.661,5.15962.91608,10.31712.67087,15.234-2.25976a.7925.7925,0,0,1,.07181-.041s32.62925-18.41413,46.92607-27.75049a5.85562,5.85562,0,0,0-5.46982-10.30042Z"/><rect class="cls-1" x="4.01136" y="77.4505" width="13.11314" height="43.14235"/></svg>