<svg width="67" height="67" viewBox="0 0 67 67" fill="none" xmlns="http://www.w3.org/2000/svg">
<g clip-path="url(#clip0)">
<path d="M63.6162 27.9019L65.4532 26.0665L67.0002 27.6134L62.0147 32.5983L61.7642 30.335C60.1702 15.922 48.0184 5.0532 33.5001 5.0532C32.7955 5.0532 32.0867 5.07831 31.3917 5.12959L31.232 2.94696C31.9793 2.89248 32.7432 2.86523 33.5001 2.86523C48.3901 2.86523 60.9688 13.4824 63.6162 27.9019ZM3.38345 39.0912C6.03134 53.5112 18.61 64.1284 33.5001 64.1284C34.2591 64.1284 35.0241 64.1011 35.7687 64.0451L35.6069 61.8635C34.9156 61.9153 34.2068 61.9404 33.5001 61.9404C18.9818 61.9404 6.82993 51.0705 5.23596 36.6586L4.98543 34.3948L0 39.3802L1.54696 40.9271L3.38345 39.0912ZM55.3798 33.4968C55.3798 45.5611 45.5644 55.3765 33.5001 55.3765C21.4358 55.3765 11.6204 45.5611 11.6204 33.4968C11.6204 21.4325 21.4358 11.6171 33.5001 11.6171C45.5644 11.6171 55.3798 21.4325 55.3798 33.4968ZM53.1357 34.5908H47.7219V32.4028H53.1357C52.5834 22.4191 44.5778 14.4135 34.5941 13.8606V19.275H32.4061V13.8606C22.4224 14.4135 14.4168 22.4191 13.8639 32.4028H19.2783V34.5908H13.8639C14.4168 44.5745 22.4224 52.5801 32.4061 53.1325V47.7186H34.5941V53.1325C44.5778 52.5801 52.5834 44.5745 53.1357 34.5908ZM17.2399 15.7553C21.6885 11.6759 27.4623 9.42914 33.5001 9.42914C46.7711 9.42914 57.5678 20.2258 57.5678 33.4968C57.5678 39.5346 55.3205 45.3084 51.2399 49.7565L52.8537 51.2356C57.3039 46.3816 59.7557 40.0837 59.7557 33.4968C59.7557 19.0191 47.9767 7.24117 33.5001 7.24117C26.9132 7.24117 20.6137 9.69249 15.7613 14.1443L17.2399 15.7553ZM33.5001 59.7524C40.087 59.7524 46.3849 57.3006 51.2389 52.8493L49.7598 51.2356C45.3117 55.3172 39.5378 57.5645 33.5001 57.5645C20.2291 57.5645 9.43242 46.7678 9.43242 33.4968C9.43242 27.4601 11.6791 21.6852 15.7597 17.2355L14.1465 15.7564C9.69576 20.6104 7.24445 26.911 7.24445 33.4968C7.24445 47.9734 19.0235 59.7524 33.5001 59.7524ZM36.5807 32.4028H41.158V34.5908H36.5807C36.1277 35.8611 34.9242 36.7788 33.5001 36.7788C31.6903 36.7788 30.2181 35.3061 30.2181 33.4968C30.2181 32.0722 31.1358 30.8692 32.4061 30.4162V21.463H34.5941V30.4162C35.5209 30.7464 36.2505 31.476 36.5807 32.4028ZM34.5941 33.4968C34.5941 32.8937 34.1037 32.4028 33.5001 32.4028C32.8959 32.4028 32.4061 32.8937 32.4061 33.4968C32.4061 34.0994 32.8959 34.5908 33.5001 34.5908C34.1037 34.5908 34.5941 34.0994 34.5941 33.4968ZM28.5969 3.24022L26.4517 3.6681L26.879 5.81333L29.0243 5.38546L28.5969 3.24022ZM22.7889 4.77864L20.767 5.61569L21.6041 7.637L23.6259 6.80048L22.7889 4.77864ZM15.5717 8.63483L16.7864 10.4542L18.6063 9.24005L17.3921 7.42066L15.5717 8.63483ZM12.6134 11.0637L11.067 12.6101L12.6134 14.1571L14.1604 12.6101L12.6134 11.0637ZM7.42286 17.3878L9.24225 18.603L10.4575 16.7842L8.6381 15.5684L7.42286 17.3878ZM7.64027 21.6008L5.61896 20.7627L4.78084 22.7845L6.80215 23.6226L7.64027 21.6008ZM5.8166 26.8747L3.6703 26.4484L3.24243 28.5947L5.38873 29.021L5.8166 26.8747ZM40.5485 63.3266L40.1206 61.1798L37.9754 61.6076L38.4033 63.7539L40.5485 63.3266ZM44.2113 62.215L46.2332 61.3769L45.3961 59.355L43.3743 60.1931L44.2113 62.215ZM48.3923 57.7546L49.607 59.574L51.4269 58.3588L50.2127 56.5394L48.3923 57.7546ZM54.3862 55.9299L55.9332 54.3829L54.3862 52.836L52.8393 54.3829L54.3862 55.9299ZM59.5773 49.6048L57.7579 48.3901L56.5427 50.2105L58.3621 51.4247L59.5773 49.6048ZM60.1964 43.371L59.3583 45.3928L61.3801 46.2299L62.2183 44.208L60.1964 43.371ZM63.7561 38.4L61.6098 37.9721L61.182 40.1173L63.3288 40.5452L63.7561 38.4Z" fill="url(#paint0_linear)"/>
</g>
<defs>
<linearGradient id="paint0_linear" x1="33.5" y1="64.1283" x2="33.5" y2="2.86516" gradientUnits="userSpaceOnUse">
<stop stop-color="#2CA2E7"/>
<stop offset="1" stop-color="#0BB1D3"/>
</linearGradient>
<clipPath id="clip0">
<rect width="67" height="67" fill="white"/>
</clipPath>
</defs>
</svg>
