<svg width="67" height="67" viewBox="0 0 67 67" fill="none" xmlns="http://www.w3.org/2000/svg">
<g clip-path="url(#clip0)">
<path d="M27.016 66.9997H39.9837C41.7714 66.9997 43.2257 65.5455 43.2257 63.7578V45.3869H45.3869V43.2256H21.6128V45.3869H23.7741V63.7578C23.7741 65.5455 25.2289 66.9997 27.016 66.9997ZM41.0644 63.7578C41.0644 64.3546 40.5805 64.8385 39.9837 64.8385H27.016C26.4198 64.8385 25.9354 64.3546 25.9354 63.7578V60.5159H32.4192V58.3546H25.9354V56.1933H30.258V54.0321H25.9354V51.8708H32.4192V49.7095H25.9354V45.3869H41.0644V63.7578ZM63.7578 43.2256C65.5455 43.2256 66.9998 41.7714 66.9998 39.9837C66.9998 38.1965 65.5455 36.7418 63.7578 36.7418H51.3479C50.3691 35.4754 49.0309 34.5277 47.4838 34.0813L38.9031 31.6066V29.4316C40.0455 28.514 40.9488 27.3131 41.5087 25.9354H42.145C44.529 25.9354 46.4676 23.9968 46.4676 21.6128V12.9677C46.4676 5.81742 40.6507 0 33.4999 0C29.8875 0 26.433 1.67531 24.1904 4.49669C21.9891 5.37735 20.5322 7.50644 20.5322 9.90095V21.6128C20.5322 23.9968 22.4713 25.9354 24.8548 25.9354H25.4916C26.0515 27.3131 26.9548 28.514 28.0967 29.4316V31.6066L19.5165 34.0813C17.9694 34.5277 16.6323 35.4754 15.6524 36.7418H3.24194C1.45477 36.7418 1.56477e-05 38.1965 1.56477e-05 39.9837C1.56477e-05 41.7714 1.45477 43.2256 3.24194 43.2256H4.32258V47.5493C1.5814 49.6061 -0.0237289 52.8242 1.56477e-05 56.2714C0.0411729 62.0255 4.75209 66.8356 10.5009 66.9955C10.6033 66.9976 10.7072 66.9997 10.8112 66.9997C13.6421 66.9997 16.3062 65.9202 18.3408 63.9404C20.4515 61.8894 21.6128 59.1371 21.6128 56.1933C21.6128 52.7778 20.0082 49.5887 17.2903 47.5493V43.2256H18.3709C20.1586 43.2256 21.6128 41.7714 21.6128 39.9837C21.6128 38.3316 20.366 36.9798 18.7667 36.7819C19.1872 36.5202 19.6336 36.298 20.1153 36.1582L25.1555 34.704L27.5036 42.9222L33.4999 38.1264L39.4967 42.9233L41.8448 34.705L46.885 36.1593C47.3678 36.2991 47.8131 36.5212 48.2336 36.783C46.6343 36.9798 45.3869 38.3316 45.3869 39.9837C45.3869 41.7714 46.8417 43.2256 48.6289 43.2256H49.7095V48.4537L45.6344 60.6816C45.4703 61.1718 45.3869 61.6831 45.3869 62.2007C45.3869 64.8474 47.5398 66.9997 50.1865 66.9997H62.1997C64.8475 66.9997 66.9998 64.8474 66.9998 62.2007C66.9998 61.6831 66.9169 61.1728 66.7528 60.6826L62.6772 48.4537V43.2256H63.7578ZM16.8333 62.3912C15.1453 64.0333 12.9419 64.9176 10.5595 64.8342C5.96201 64.7076 2.19401 60.8583 2.1613 56.2572C2.15708 55.6683 2.22725 55.0911 2.33859 54.5259C2.9665 54.8547 3.7564 55.1127 4.85657 55.1127C6.69387 55.1127 7.67478 54.3998 8.46363 53.8257C9.16172 53.3181 9.66563 52.9514 10.8001 52.9514C11.9361 52.9514 12.4395 53.3181 13.1376 53.8257C13.9275 54.3998 14.909 55.1127 16.7468 55.1127C17.8512 55.1127 18.6437 54.8536 19.2737 54.5238C19.3803 55.0694 19.4516 55.625 19.4516 56.1933C19.4516 58.5483 18.5224 60.7496 16.8333 62.3912ZM19.4516 39.9837C19.4516 40.5805 18.9677 41.0644 18.3709 41.0644H15.129V48.6853L15.6081 49.0061C16.9104 49.8783 17.915 51.0703 18.5756 52.4327C18.0891 52.7472 17.5942 52.9514 16.7468 52.9514C15.6113 52.9514 15.1063 52.5852 14.4082 52.0771C13.6204 51.5035 12.6374 50.7901 10.8001 50.7901C8.96332 50.7901 7.98188 51.5035 7.19303 52.0771C6.496 52.5852 5.99156 52.9514 4.85657 52.9514C4.0139 52.9514 3.51896 52.7472 3.03457 52.4338C3.6952 51.0714 4.70091 49.8783 6.00422 49.0051L6.48386 48.6853V43.2256H12.9677V41.0644H3.24194C2.64569 41.0644 2.1613 40.5805 2.1613 39.9837C2.1613 39.3875 2.64569 38.9031 3.24194 38.9031H18.3709C18.9677 38.9031 19.4516 39.3875 19.4516 39.9837ZM42.145 23.7741H42.0706C42.1149 23.42 42.145 23.0602 42.145 22.6935V19.4515C43.337 19.4515 44.3063 20.4208 44.3063 21.6128C44.3063 22.8048 43.337 23.7741 42.145 23.7741ZM25.1967 6.42791L25.5164 6.3208L25.7196 6.05275C27.5469 3.61603 30.4558 2.16128 33.4999 2.16128C39.4587 2.16128 44.3063 7.00939 44.3063 12.9677V17.8913C43.6678 17.5193 42.9365 17.2903 42.145 17.2903V15.129H41.0644C37.813 15.129 34.5895 14.0552 31.9871 12.1034L31.0732 11.4169L30.0765 12.9128C29.1515 14.3 27.6033 15.129 25.9354 15.129H24.8548V17.2903C24.0638 17.2903 23.3325 17.5193 22.6935 17.8913V9.90095C22.6935 8.32326 23.6997 6.92813 25.1967 6.42791ZM24.8548 23.7741C23.6633 23.7741 22.6935 22.8048 22.6935 21.6128C22.6935 20.4208 23.6633 19.4515 24.8548 19.4515V22.6935C24.8548 23.0602 24.8854 23.42 24.9297 23.7741H24.8548ZM27.016 22.6935V17.2095C28.838 16.9314 30.4875 15.959 31.6146 14.4784C34.1088 16.1025 37.0146 17.0676 39.9837 17.256V22.6935C39.9837 26.2694 37.0758 29.1773 33.4999 29.1773C29.9245 29.1773 27.016 26.2694 27.016 22.6935ZM33.4999 31.3386C34.6465 31.3386 35.7403 31.1096 36.7418 30.7022V31.9718L33.4999 35.2137L30.258 31.9718V30.7022C31.26 31.1096 32.3538 31.3386 33.4999 31.3386ZM27.2324 34.1051L28.8644 33.6339L31.8826 36.6521L28.6903 39.206L27.2324 34.1051ZM38.31 39.206L35.1177 36.6521L38.1359 33.6339L39.7679 34.1051L38.31 39.206ZM64.8385 62.2007C64.8385 63.6555 63.6555 64.8385 62.2007 64.8385H50.1865C48.7318 64.8385 47.5482 63.6555 47.5482 62.2007C47.5482 61.9163 47.5941 61.6366 47.6833 61.3665L49.7765 55.0868C49.9311 55.0969 50.0804 55.1127 50.2435 55.1127C52.0808 55.1127 53.0617 54.3998 53.8506 53.8257C54.5486 53.3181 55.0526 52.9514 56.187 52.9514C57.3231 52.9514 57.8264 53.3181 58.5245 53.8257C59.3144 54.3998 60.2959 55.1127 62.1337 55.1127C62.3026 55.1127 62.4461 55.0794 62.6039 55.0673L64.7034 61.3654C64.7931 61.6356 64.8385 61.9163 64.8385 62.2007ZM54.0321 41.0644V43.2256H60.5159V48.804L61.892 52.9298C60.9375 52.877 60.4373 52.5441 59.7951 52.0771C59.0073 51.5035 58.0243 50.7901 56.187 50.7901C54.3502 50.7901 53.3688 51.5035 52.58 52.0771C51.9415 52.542 51.4418 52.8738 50.4952 52.9287L51.8708 48.804V41.0644H48.6289C48.0326 41.0644 47.5482 40.5805 47.5482 39.9837C47.5482 39.3875 48.0326 38.9031 48.6289 38.9031H63.7578C64.3546 38.9031 64.8385 39.3875 64.8385 39.9837C64.8385 40.5805 64.3546 41.0644 63.7578 41.0644H54.0321Z" fill="url(#paint0_linear)"/>
</g>
<defs>
<linearGradient id="paint0_linear" x1="33.5" y1="66.9999" x2="33.5" y2="0.000127792" gradientUnits="userSpaceOnUse">
<stop stop-color="#1690EF"/>
<stop offset="1" stop-color="#0BB1D3"/>
</linearGradient>
<clipPath id="clip0">
<rect width="67" height="67" fill="white"/>
</clipPath>
</defs>
</svg>
