<svg width="67" height="67" viewBox="0 0 67 67" fill="none" xmlns="http://www.w3.org/2000/svg">
<g clip-path="url(#clip0)">
<path d="M53.2294 4.73839L54.6079 6.11693L49.1483 11.5766L46.1595 8.58782L41.4211 13.3262H31.4301L29.2832 19.7671H16.1022C13.1428 19.7671 10.7348 22.1751 10.7348 25.1345V32.6488H7.66372L7.17416 35.9143C6.93252 35.8865 6.68879 35.8692 6.44086 35.8692C2.88864 35.8692 0 38.7579 0 42.3101C0 45.4598 2.2738 48.0832 5.26517 48.6383L4.42914 54.2127C1.91737 54.6593 0 56.8482 0 59.4857V62.7062H4.52926L5.60273 67.0001H13.7199L14.7933 62.7062H43.1744L44.2479 67.0001H52.365L53.4385 62.7062H57.9678V59.4857C57.9678 56.5263 55.5598 54.1183 52.6004 54.1183H49.3799V49.8244H30.0574V54.1183H17.1756V43.3836H21.4695V39.5341L25.7634 35.2402V33.2778L22.0031 29.5175L26.1403 26.2079H29.2842L31.4312 32.6488H33.2778V39.0897H46.1595V32.6488H48.0072L50.1541 26.2079H54.7473V24.5055L58.4122 20.8405L55.4235 17.8518L60.8831 12.3922L62.2617 13.7707L67.0001 9.0323L57.9678 0L53.2294 4.73839ZM32.9785 15.4732H43.5681L47.862 19.7671H31.5475L32.9785 15.4732ZM12.8817 25.1345C12.8817 23.3586 14.3268 21.914 16.1022 21.914H24.69V24.6192L20.0192 28.3549H12.8817V25.1345ZM19.3226 30.5018V36.9427H12.8817V30.5018H19.3226ZM9.51191 34.7957H10.7348V37.5224C10.2913 37.1241 9.79338 36.7881 9.2535 36.5239L9.51191 34.7957ZM2.14695 42.3101C2.14695 39.9419 4.07271 38.0162 6.44086 38.0162C8.80901 38.0162 10.7348 39.9419 10.7348 42.3101C10.7348 44.6782 8.80901 46.604 6.44086 46.604C4.07271 46.604 2.14695 44.6782 2.14695 42.3101ZM12.0436 64.8531H7.27899L6.74225 62.7062H12.5803L12.0436 64.8531ZM50.6888 64.8531H45.9242L45.3874 62.7062H51.2255L50.6888 64.8531ZM55.8208 59.4857V60.5592H2.14695V59.4857C2.14695 57.7099 3.59206 56.2653 5.36738 56.2653H52.6004C54.3757 56.2653 55.8208 57.7099 55.8208 59.4857ZM32.2043 51.9714H47.233V54.1183H32.2043V51.9714ZM15.0287 54.1183H6.61383L7.43152 48.6671C10.1624 48.243 12.3256 46.1024 12.7853 43.3836H15.0287V54.1183ZM12.8817 41.2366V39.0897H19.3226V41.2366H12.8817ZM23.6165 34.3513L21.4695 36.4982V32.0198L23.6165 34.1668V34.3513ZM26.8369 21.914H50.0089L52.1559 24.061H26.8369V21.914ZM44.0126 36.9427H35.4247V32.6488H44.0126V36.9427ZM46.4588 30.5018H32.9785L31.5475 26.2079H47.8908L46.4588 30.5018ZM53.6739 22.543L44.457 13.3262L46.1595 11.6237L55.3763 20.8405L53.6739 22.543ZM53.9055 16.3338L50.6647 13.093L56.1248 7.63332L59.3652 10.8742L53.9055 16.3338ZM62.2617 10.7348L56.2653 4.73839L57.9678 3.03593L63.9641 9.0323L62.2617 10.7348ZM17.1756 25.1345C17.1756 25.7268 16.6945 26.2079 16.1022 26.2079C15.5099 26.2079 15.0287 25.7268 15.0287 25.1345C15.0287 24.5416 15.5099 24.061 16.1022 24.061C16.6945 24.061 17.1756 24.5416 17.1756 25.1345ZM15.0287 33.7223C15.0287 33.1295 15.5099 32.6488 16.1022 32.6488C16.6945 32.6488 17.1756 33.1295 17.1756 33.7223C17.1756 34.3146 16.6945 34.7957 16.1022 34.7957C15.5099 34.7957 15.0287 34.3146 15.0287 33.7223ZM6.44086 43.3836C5.84856 43.3836 5.36738 42.9024 5.36738 42.3101C5.36738 41.7173 5.84856 41.2366 6.44086 41.2366C7.03316 41.2366 7.51434 41.7173 7.51434 42.3101C7.51434 42.9024 7.03316 43.3836 6.44086 43.3836Z" fill="url(#paint0_linear)"/>
</g>
<defs>
<linearGradient id="paint0_linear" x1="33.5" y1="67" x2="33.5" y2="-0.000107825" gradientUnits="userSpaceOnUse">
<stop stop-color="#289EE9"/>
<stop offset="1" stop-color="#0BB1D3"/>
</linearGradient>
<clipPath id="clip0">
<rect width="67" height="67" fill="white"/>
</clipPath>
</defs>
</svg>
